<mxfile host="Electron" agent="Mozilla/5.0 (Windows NT 10.0; Win64; x64) AppleWebKit/537.36 (KHTML, like Gecko) draw.io/26.1.1 Chrome/132.0.6834.210 Electron/34.3.3 Safari/537.36" version="26.1.1">
  <diagram name="Page-1" id="9askmqCc3vtXR9fJzsnG">
    <mxGraphModel dx="816" dy="598" grid="1" gridSize="10" guides="1" tooltips="1" connect="1" arrows="1" fold="1" page="1" pageScale="1" pageWidth="1700" pageHeight="1100" math="0" shadow="0">
      <root>
        <mxCell id="0" />
        <mxCell id="1" parent="0" />
        <mxCell id="aKWXB8N21FQL_baii1oH-1" style="edgeStyle=orthogonalEdgeStyle;rounded=0;orthogonalLoop=1;jettySize=auto;html=1;exitX=0.5;exitY=1;exitDx=0;exitDy=0;entryX=0.5;entryY=0;entryDx=0;entryDy=0;endArrow=none;startFill=0;" edge="1" parent="1" source="4MImLhvEphkxSikirKIt-1" target="4MImLhvEphkxSikirKIt-2">
          <mxGeometry relative="1" as="geometry" />
        </mxCell>
        <mxCell id="aKWXB8N21FQL_baii1oH-71" style="edgeStyle=orthogonalEdgeStyle;shape=connector;curved=1;rounded=0;orthogonalLoop=1;jettySize=auto;html=1;exitX=0.75;exitY=1;exitDx=0;exitDy=0;entryX=0.5;entryY=0;entryDx=0;entryDy=0;strokeColor=default;align=center;verticalAlign=middle;fontFamily=Helvetica;fontSize=11;fontColor=default;labelBackgroundColor=default;startFill=0;endArrow=none;" edge="1" parent="1" source="4MImLhvEphkxSikirKIt-1" target="4MImLhvEphkxSikirKIt-35">
          <mxGeometry relative="1" as="geometry" />
        </mxCell>
        <mxCell id="aKWXB8N21FQL_baii1oH-73" style="edgeStyle=orthogonalEdgeStyle;shape=connector;curved=1;rounded=0;orthogonalLoop=1;jettySize=auto;html=1;exitX=1;exitY=0.5;exitDx=0;exitDy=0;entryX=0.5;entryY=0;entryDx=0;entryDy=0;strokeColor=default;align=center;verticalAlign=middle;fontFamily=Helvetica;fontSize=11;fontColor=default;labelBackgroundColor=default;startFill=0;endArrow=none;" edge="1" parent="1" source="4MImLhvEphkxSikirKIt-1" target="4MImLhvEphkxSikirKIt-8">
          <mxGeometry relative="1" as="geometry" />
        </mxCell>
        <mxCell id="4MImLhvEphkxSikirKIt-1" value="DEFAULT: IDLE" style="rounded=1;whiteSpace=wrap;html=1;" parent="1" vertex="1">
          <mxGeometry x="200" y="40" width="120" height="60" as="geometry" />
        </mxCell>
        <mxCell id="aKWXB8N21FQL_baii1oH-65" style="edgeStyle=orthogonalEdgeStyle;shape=connector;curved=1;rounded=0;orthogonalLoop=1;jettySize=auto;html=1;exitX=0.5;exitY=1;exitDx=0;exitDy=0;strokeColor=default;align=center;verticalAlign=middle;fontFamily=Helvetica;fontSize=11;fontColor=default;labelBackgroundColor=default;startFill=0;endArrow=none;" edge="1" parent="1" source="4MImLhvEphkxSikirKIt-5" target="4MImLhvEphkxSikirKIt-6">
          <mxGeometry relative="1" as="geometry" />
        </mxCell>
        <mxCell id="4MImLhvEphkxSikirKIt-5" value="L2C" style="rounded=1;whiteSpace=wrap;html=1;" parent="1" vertex="1">
          <mxGeometry x="880" y="250" width="120" height="60" as="geometry" />
        </mxCell>
        <mxCell id="aKWXB8N21FQL_baii1oH-35" style="edgeStyle=orthogonalEdgeStyle;shape=connector;rounded=0;orthogonalLoop=1;jettySize=auto;html=1;exitX=0.5;exitY=1;exitDx=0;exitDy=0;entryX=0.5;entryY=1;entryDx=0;entryDy=0;strokeColor=default;align=center;verticalAlign=middle;fontFamily=Helvetica;fontSize=11;fontColor=default;labelBackgroundColor=default;startFill=0;endArrow=none;" edge="1" parent="1" source="4MImLhvEphkxSikirKIt-6" target="aKWXB8N21FQL_baii1oH-34">
          <mxGeometry relative="1" as="geometry">
            <Array as="points">
              <mxPoint x="740" y="490" />
              <mxPoint x="870" y="490" />
            </Array>
          </mxGeometry>
        </mxCell>
        <mxCell id="4MImLhvEphkxSikirKIt-6" value="L3C" style="rounded=1;whiteSpace=wrap;html=1;" parent="1" vertex="1">
          <mxGeometry x="640" y="310" width="120" height="60" as="geometry" />
        </mxCell>
        <mxCell id="aKWXB8N21FQL_baii1oH-68" style="edgeStyle=orthogonalEdgeStyle;shape=connector;curved=1;rounded=0;orthogonalLoop=1;jettySize=auto;html=1;exitX=0.5;exitY=1;exitDx=0;exitDy=0;entryX=0.5;entryY=1;entryDx=0;entryDy=0;strokeColor=default;align=center;verticalAlign=middle;fontFamily=Helvetica;fontSize=11;fontColor=default;labelBackgroundColor=default;startFill=0;endArrow=none;" edge="1" parent="1" source="4MImLhvEphkxSikirKIt-2" target="4MImLhvEphkxSikirKIt-8">
          <mxGeometry relative="1" as="geometry">
            <Array as="points">
              <mxPoint x="260" y="370" />
              <mxPoint x="580" y="370" />
            </Array>
          </mxGeometry>
        </mxCell>
        <mxCell id="aKWXB8N21FQL_baii1oH-69" style="edgeStyle=orthogonalEdgeStyle;shape=connector;curved=1;rounded=0;orthogonalLoop=1;jettySize=auto;html=1;exitX=1;exitY=0.5;exitDx=0;exitDy=0;strokeColor=default;align=center;verticalAlign=middle;fontFamily=Helvetica;fontSize=11;fontColor=default;labelBackgroundColor=default;startFill=0;endArrow=none;" edge="1" parent="1" source="4MImLhvEphkxSikirKIt-2" target="4MImLhvEphkxSikirKIt-35">
          <mxGeometry relative="1" as="geometry" />
        </mxCell>
        <mxCell id="4MImLhvEphkxSikirKIt-2" value="L1" style="rounded=1;whiteSpace=wrap;html=1;" parent="1" vertex="1">
          <mxGeometry x="200" y="180" width="120" height="60" as="geometry" />
        </mxCell>
        <mxCell id="aKWXB8N21FQL_baii1oH-53" style="edgeStyle=orthogonalEdgeStyle;shape=connector;curved=1;rounded=0;orthogonalLoop=1;jettySize=auto;html=1;exitX=1;exitY=1;exitDx=0;exitDy=0;entryX=0;entryY=0.5;entryDx=0;entryDy=0;strokeColor=default;align=center;verticalAlign=middle;fontFamily=Helvetica;fontSize=11;fontColor=default;labelBackgroundColor=default;startFill=0;endArrow=none;" edge="1" parent="1" source="4MImLhvEphkxSikirKIt-8" target="4MImLhvEphkxSikirKIt-5">
          <mxGeometry relative="1" as="geometry" />
        </mxCell>
        <mxCell id="aKWXB8N21FQL_baii1oH-54" style="edgeStyle=orthogonalEdgeStyle;shape=connector;curved=1;rounded=0;orthogonalLoop=1;jettySize=auto;html=1;exitX=1;exitY=0.5;exitDx=0;exitDy=0;entryX=0;entryY=1;entryDx=0;entryDy=0;strokeColor=default;align=center;verticalAlign=middle;fontFamily=Helvetica;fontSize=11;fontColor=default;labelBackgroundColor=default;startFill=0;endArrow=none;" edge="1" parent="1" source="4MImLhvEphkxSikirKIt-8" target="4MImLhvEphkxSikirKIt-33">
          <mxGeometry relative="1" as="geometry" />
        </mxCell>
        <mxCell id="aKWXB8N21FQL_baii1oH-55" style="edgeStyle=orthogonalEdgeStyle;shape=connector;curved=1;rounded=0;orthogonalLoop=1;jettySize=auto;html=1;exitX=1;exitY=0;exitDx=0;exitDy=0;entryX=0.5;entryY=1;entryDx=0;entryDy=0;strokeColor=default;align=center;verticalAlign=middle;fontFamily=Helvetica;fontSize=11;fontColor=default;labelBackgroundColor=default;startFill=0;endArrow=none;" edge="1" parent="1" source="4MImLhvEphkxSikirKIt-8" target="aKWXB8N21FQL_baii1oH-38">
          <mxGeometry relative="1" as="geometry" />
        </mxCell>
        <mxCell id="4MImLhvEphkxSikirKIt-8" value="T1 (0 deg)" style="rounded=1;whiteSpace=wrap;html=1;" parent="1" vertex="1">
          <mxGeometry x="520" y="180" width="120" height="60" as="geometry" />
        </mxCell>
        <mxCell id="aKWXB8N21FQL_baii1oH-36" style="edgeStyle=orthogonalEdgeStyle;shape=connector;rounded=0;orthogonalLoop=1;jettySize=auto;html=1;exitX=0.5;exitY=0;exitDx=0;exitDy=0;entryX=0.5;entryY=0;entryDx=0;entryDy=0;strokeColor=default;align=center;verticalAlign=middle;fontFamily=Helvetica;fontSize=11;fontColor=default;labelBackgroundColor=default;startFill=0;endArrow=none;" edge="1" parent="1" source="4MImLhvEphkxSikirKIt-28" target="aKWXB8N21FQL_baii1oH-34">
          <mxGeometry relative="1" as="geometry" />
        </mxCell>
        <mxCell id="aKWXB8N21FQL_baii1oH-37" style="edgeStyle=orthogonalEdgeStyle;shape=connector;rounded=0;orthogonalLoop=1;jettySize=auto;html=1;exitX=0.25;exitY=0;exitDx=0;exitDy=0;entryX=0.5;entryY=1;entryDx=0;entryDy=0;strokeColor=default;align=center;verticalAlign=middle;fontFamily=Helvetica;fontSize=11;fontColor=default;labelBackgroundColor=default;startFill=0;endArrow=none;" edge="1" parent="1" source="4MImLhvEphkxSikirKIt-28" target="4MImLhvEphkxSikirKIt-6">
          <mxGeometry relative="1" as="geometry" />
        </mxCell>
        <mxCell id="4MImLhvEphkxSikirKIt-28" value="INTAKE" style="rounded=1;whiteSpace=wrap;html=1;" parent="1" vertex="1">
          <mxGeometry x="590" y="560" width="120" height="60" as="geometry" />
        </mxCell>
        <mxCell id="aKWXB8N21FQL_baii1oH-62" style="edgeStyle=orthogonalEdgeStyle;shape=connector;curved=1;rounded=0;orthogonalLoop=1;jettySize=auto;html=1;exitX=1;exitY=0.5;exitDx=0;exitDy=0;entryX=1;entryY=0.5;entryDx=0;entryDy=0;strokeColor=default;align=center;verticalAlign=middle;fontFamily=Helvetica;fontSize=11;fontColor=default;labelBackgroundColor=default;startFill=0;endArrow=none;" edge="1" parent="1" source="4MImLhvEphkxSikirKIt-33" target="4MImLhvEphkxSikirKIt-5">
          <mxGeometry relative="1" as="geometry" />
        </mxCell>
        <mxCell id="aKWXB8N21FQL_baii1oH-64" style="edgeStyle=orthogonalEdgeStyle;shape=connector;curved=1;rounded=0;orthogonalLoop=1;jettySize=auto;html=1;exitX=1;exitY=0.25;exitDx=0;exitDy=0;entryX=1;entryY=1;entryDx=0;entryDy=0;strokeColor=default;align=center;verticalAlign=middle;fontFamily=Helvetica;fontSize=11;fontColor=default;labelBackgroundColor=default;startFill=0;endArrow=none;" edge="1" parent="1" source="4MImLhvEphkxSikirKIt-33" target="4MImLhvEphkxSikirKIt-6">
          <mxGeometry relative="1" as="geometry">
            <Array as="points">
              <mxPoint x="1070" y="125" />
              <mxPoint x="1070" y="390" />
              <mxPoint x="760" y="390" />
            </Array>
          </mxGeometry>
        </mxCell>
        <mxCell id="4MImLhvEphkxSikirKIt-33" value="L2A" style="rounded=1;whiteSpace=wrap;html=1;" parent="1" vertex="1">
          <mxGeometry x="870" y="110" width="120" height="60" as="geometry" />
        </mxCell>
        <mxCell id="aKWXB8N21FQL_baii1oH-70" style="edgeStyle=orthogonalEdgeStyle;shape=connector;curved=1;rounded=0;orthogonalLoop=1;jettySize=auto;html=1;exitX=1;exitY=0.5;exitDx=0;exitDy=0;strokeColor=default;align=center;verticalAlign=middle;fontFamily=Helvetica;fontSize=11;fontColor=default;labelBackgroundColor=default;startFill=0;endArrow=none;" edge="1" parent="1" source="4MImLhvEphkxSikirKIt-35" target="4MImLhvEphkxSikirKIt-8">
          <mxGeometry relative="1" as="geometry" />
        </mxCell>
        <mxCell id="4MImLhvEphkxSikirKIt-35" value="GROUND_ALGAE" style="rounded=1;whiteSpace=wrap;html=1;" parent="1" vertex="1">
          <mxGeometry x="360" y="180" width="120" height="60" as="geometry" />
        </mxCell>
        <mxCell id="aKWXB8N21FQL_baii1oH-4" value="All transition nodes are to connect to eachother vertically&lt;div&gt;&lt;br&gt;&lt;/div&gt;&lt;div&gt;Do not move to T1 if there is coral present.&lt;/div&gt;" style="text;html=1;align=center;verticalAlign=middle;whiteSpace=wrap;rounded=0;fontFamily=Helvetica;fontSize=11;fontColor=default;labelBackgroundColor=default;" vertex="1" parent="1">
          <mxGeometry x="1330" y="170" width="210" height="30" as="geometry" />
        </mxCell>
        <mxCell id="aKWXB8N21FQL_baii1oH-72" style="edgeStyle=orthogonalEdgeStyle;shape=connector;curved=1;rounded=0;orthogonalLoop=1;jettySize=auto;html=1;exitX=1;exitY=0.5;exitDx=0;exitDy=0;entryX=0;entryY=0.5;entryDx=0;entryDy=0;strokeColor=default;align=center;verticalAlign=middle;fontFamily=Helvetica;fontSize=11;fontColor=default;labelBackgroundColor=default;startFill=0;endArrow=none;" edge="1" parent="1" source="aKWXB8N21FQL_baii1oH-22" target="4MImLhvEphkxSikirKIt-1">
          <mxGeometry relative="1" as="geometry" />
        </mxCell>
        <mxCell id="aKWXB8N21FQL_baii1oH-22" value="ZERO" style="rounded=1;whiteSpace=wrap;html=1;" vertex="1" parent="1">
          <mxGeometry x="40" y="40" width="120" height="60" as="geometry" />
        </mxCell>
        <mxCell id="aKWXB8N21FQL_baii1oH-34" value="BARGE" style="rounded=1;whiteSpace=wrap;html=1;" vertex="1" parent="1">
          <mxGeometry x="770" y="560" width="120" height="60" as="geometry" />
        </mxCell>
        <mxCell id="aKWXB8N21FQL_baii1oH-58" style="edgeStyle=orthogonalEdgeStyle;shape=connector;curved=1;rounded=0;orthogonalLoop=1;jettySize=auto;html=1;exitX=1;exitY=0.5;exitDx=0;exitDy=0;entryX=0.5;entryY=0;entryDx=0;entryDy=0;strokeColor=default;align=center;verticalAlign=middle;fontFamily=Helvetica;fontSize=11;fontColor=default;labelBackgroundColor=default;startFill=0;endArrow=none;" edge="1" parent="1" source="aKWXB8N21FQL_baii1oH-38" target="4MImLhvEphkxSikirKIt-33">
          <mxGeometry relative="1" as="geometry" />
        </mxCell>
        <mxCell id="aKWXB8N21FQL_baii1oH-59" style="edgeStyle=orthogonalEdgeStyle;shape=connector;curved=1;rounded=0;orthogonalLoop=1;jettySize=auto;html=1;exitX=0.75;exitY=1;exitDx=0;exitDy=0;entryX=0.5;entryY=0;entryDx=0;entryDy=0;strokeColor=default;align=center;verticalAlign=middle;fontFamily=Helvetica;fontSize=11;fontColor=default;labelBackgroundColor=default;startFill=0;endArrow=none;" edge="1" parent="1" source="aKWXB8N21FQL_baii1oH-38" target="4MImLhvEphkxSikirKIt-5">
          <mxGeometry relative="1" as="geometry" />
        </mxCell>
        <mxCell id="aKWXB8N21FQL_baii1oH-60" style="edgeStyle=orthogonalEdgeStyle;shape=connector;curved=1;rounded=0;orthogonalLoop=1;jettySize=auto;html=1;exitX=0.25;exitY=1;exitDx=0;exitDy=0;entryX=0.75;entryY=0;entryDx=0;entryDy=0;strokeColor=default;align=center;verticalAlign=middle;fontFamily=Helvetica;fontSize=11;fontColor=default;labelBackgroundColor=default;startFill=0;endArrow=none;" edge="1" parent="1" source="aKWXB8N21FQL_baii1oH-38" target="4MImLhvEphkxSikirKIt-6">
          <mxGeometry relative="1" as="geometry">
            <Array as="points">
              <mxPoint x="710" y="240" />
              <mxPoint x="730" y="240" />
            </Array>
          </mxGeometry>
        </mxCell>
        <mxCell id="aKWXB8N21FQL_baii1oH-38" value="L1A" style="rounded=1;whiteSpace=wrap;html=1;" vertex="1" parent="1">
          <mxGeometry x="680" y="60" width="120" height="60" as="geometry" />
        </mxCell>
        <mxCell id="aKWXB8N21FQL_baii1oH-52" style="edgeStyle=orthogonalEdgeStyle;shape=connector;curved=1;rounded=0;orthogonalLoop=1;jettySize=auto;html=1;exitX=0.75;exitY=1;exitDx=0;exitDy=0;entryX=0.455;entryY=0.028;entryDx=0;entryDy=0;entryPerimeter=0;strokeColor=default;align=center;verticalAlign=middle;fontFamily=Helvetica;fontSize=11;fontColor=default;labelBackgroundColor=default;startFill=0;endArrow=none;" edge="1" parent="1" source="4MImLhvEphkxSikirKIt-8" target="4MImLhvEphkxSikirKIt-6">
          <mxGeometry relative="1" as="geometry" />
        </mxCell>
        <mxCell id="aKWXB8N21FQL_baii1oH-66" value="&lt;b&gt;Block 2: Fully-connected&lt;/b&gt;" style="text;html=1;align=center;verticalAlign=middle;whiteSpace=wrap;rounded=0;fontFamily=Helvetica;fontSize=11;fontColor=default;labelBackgroundColor=default;" vertex="1" parent="1">
          <mxGeometry x="770" y="230" width="60" height="30" as="geometry" />
        </mxCell>
        <mxCell id="aKWXB8N21FQL_baii1oH-67" value="&lt;b&gt;Block 3: Fully-connected&lt;/b&gt;" style="text;html=1;align=center;verticalAlign=middle;whiteSpace=wrap;rounded=0;fontFamily=Helvetica;fontSize=11;fontColor=default;labelBackgroundColor=default;" vertex="1" parent="1">
          <mxGeometry x="720" y="440" width="60" height="30" as="geometry" />
        </mxCell>
        <mxCell id="aKWXB8N21FQL_baii1oH-74" value="&lt;b&gt;Block 1: Fully-connected&lt;/b&gt;" style="text;html=1;align=center;verticalAlign=middle;whiteSpace=wrap;rounded=0;fontFamily=Helvetica;fontSize=11;fontColor=default;labelBackgroundColor=default;" vertex="1" parent="1">
          <mxGeometry x="390" y="270" width="60" height="30" as="geometry" />
        </mxCell>
      </root>
    </mxGraphModel>
  </diagram>
</mxfile>
